<svg  viewBox="0 0 20 20" fill="none" xmlns="http://www.w3.org/2000/svg">
<path fill-rule="evenodd" clip-rule="evenodd" d="M13.9225 2.74399C14.0787 2.90026 14.1665 3.11219 14.1665 3.33316C14.1665 3.55413 14.0787 3.76605 13.9225 3.92232L7.84498 9.99982L13.9225 16.0773C14.0743 16.2345 14.1583 16.445 14.1564 16.6635C14.1545 16.882 14.0668 17.091 13.9123 17.2455C13.7578 17.4 13.5488 17.4877 13.3303 17.4896C13.1118 17.4915 12.9013 17.4075 12.7442 17.2557L6.07748 10.589C5.92126 10.4327 5.8335 10.2208 5.8335 9.99982C5.8335 9.77885 5.92126 9.56693 6.07748 9.41066L12.7442 2.74399C12.9004 2.58776 13.1123 2.5 13.3333 2.5C13.5543 2.5 13.7662 2.58776 13.9225 2.74399Z" fill="#1E1E1E"/>
</svg>
