<svg viewBox="0 0 20 20" fill="none" xmlns="http://www.w3.org/2000/svg">
<path d="M19.5075 17.1427C19.6636 17.2974 19.7874 17.4817 19.8719 17.6846C19.9565 17.8876 20 18.1052 20 18.325C20 18.5448 19.9565 18.7626 19.8719 18.9654C19.7874 19.1684 19.6636 19.3526 19.5075 19.5074C19.3527 19.6635 19.1685 19.7874 18.9656 19.8719C18.7627 19.9565 18.5451 20 18.3253 20C18.1055 20 17.8879 19.9565 17.6849 19.8719C17.482 19.7874 17.2978 19.6635 17.1431 19.5074L9.99999 12.3466L2.8569 19.5074C2.70211 19.6635 2.51796 19.7874 2.31505 19.8719C2.11215 19.9565 1.89452 20 1.67471 20C1.4549 20 1.23727 19.9565 1.03437 19.8719C0.831466 19.7874 0.647309 19.6635 0.492521 19.5074C0.336457 19.3526 0.212587 19.1684 0.128055 18.9654C0.0435217 18.7626 0 18.5448 0 18.325C0 18.1052 0.0435217 17.8876 0.128055 17.6846C0.212587 17.4817 0.336457 17.2974 0.492521 17.1427L7.65226 9.99856L0.492521 2.85446C0.178984 2.54089 0.00284235 2.11558 0.00284235 1.6721C0.00284235 1.22864 0.178984 0.803329 0.492521 0.489748C0.806057 0.176167 1.23131 0 1.67471 0C2.11811 0 2.54336 0.176167 2.8569 0.489748L9.99999 7.6505L17.1431 0.489748C17.4566 0.176167 17.8818 0 18.3253 0C18.7687 0 19.1939 0.176167 19.5075 0.489748C19.821 0.803329 19.9971 1.22864 19.9971 1.6721C19.9971 2.11558 19.821 2.54089 19.5075 2.85446L12.3477 9.99856L19.5075 17.1427Z" fill="black"/>
</svg>
