<svg viewBox="0 0 24 24" fill="none" xmlns="http://www.w3.org/2000/svg">
<path d="M22.0455 20.4754C22.1547 20.5771 22.2423 20.6998 22.303 20.8361C22.3637 20.9724 22.3964 21.1195 22.399 21.2687C22.4016 21.4179 22.3742 21.5661 22.3183 21.7044C22.2624 21.8428 22.1792 21.9685 22.0737 22.074C21.9682 22.1795 21.8425 22.2627 21.7042 22.3185C21.5658 22.3744 21.4176 22.4019 21.2685 22.3992C21.1193 22.3966 20.9721 22.364 20.8358 22.3032C20.6995 22.2425 20.5769 22.1549 20.4752 22.0458L12.3715 13.9436L4.26775 22.0458C4.05712 22.242 3.77853 22.3489 3.49068 22.3438C3.20283 22.3387 2.92818 22.2221 2.72461 22.0185C2.52103 21.815 2.40442 21.5403 2.39934 21.2525C2.39426 20.9646 2.50111 20.686 2.69738 20.4754L10.7996 12.3717L2.69738 4.26799C2.50111 4.05737 2.39426 3.77878 2.39934 3.49092C2.40442 3.20307 2.52103 2.92843 2.72461 2.72485C2.92818 2.52128 3.20283 2.40467 3.49068 2.39959C3.77853 2.39451 4.05712 2.50136 4.26775 2.69762L12.3715 10.7998L20.4752 2.69762C20.6858 2.50136 20.9644 2.39451 21.2522 2.39959C21.5401 2.40467 21.8147 2.52128 22.0183 2.72485C22.2219 2.92843 22.3385 3.20307 22.3436 3.49092C22.3486 3.77878 22.2418 4.05737 22.0455 4.26799L13.9433 12.3717L22.0455 20.4754Z" fill="black"/>
</svg>
