<svg viewBox="0 0 24 24" fill="none" xmlns="http://www.w3.org/2000/svg">
<path d="M12 8.00015C11.4696 8.00015 10.9609 7.78944 10.5858 7.41437C10.2107 7.03929 10 6.53059 10 6.00015C10 5.46972 10.2107 4.96101 10.5858 4.58594C10.9609 4.21087 11.4696 4.00015 12 4.00015C12.5304 4.00015 13.0391 4.21087 13.4142 4.58594C13.7893 4.96101 14 5.46972 14 6.00015C14 6.53059 13.7893 7.03929 13.4142 7.41437C13.0391 7.78944 12.5304 8.00015 12 8.00015ZM12 14.0002C11.4696 14.0002 10.9609 13.7894 10.5858 13.4144C10.2107 13.0393 10 12.5306 10 12.0002C10 11.4697 10.2107 10.961 10.5858 10.5859C10.9609 10.2109 11.4696 10.0002 12 10.0002C12.5304 10.0002 13.0391 10.2109 13.4142 10.5859C13.7893 10.961 14 11.4697 14 12.0002C14 12.5306 13.7893 13.0393 13.4142 13.4144C13.0391 13.7894 12.5304 14.0002 12 14.0002ZM12 20.0002C11.4696 20.0002 10.9609 19.7894 10.5858 19.4144C10.2107 19.0393 10 18.5306 10 18.0002C10 17.4697 10.2107 16.961 10.5858 16.5859C10.9609 16.2109 11.4696 16.0002 12 16.0002C12.5304 16.0002 13.0391 16.2109 13.4142 16.5859C13.7893 16.961 14 17.4697 14 18.0002C14 18.5306 13.7893 19.0393 13.4142 19.4144C13.0391 19.7894 12.5304 20.0002 12 20.0002Z" fill="black"/>
</svg>
