<svg viewBox="0 0 24 24" fill="none" xmlns="http://www.w3.org/2000/svg">
<g clip-path="url(#clip0_453_28)">
<path d="M21.7556 2.24408C21.5181 2.00576 21.1614 1.93576 20.8506 2.06158L2.5172 9.56161C2.17469 9.70243 1.96551 10.0516 2.00469 10.4199C2.02337 10.5992 2.09966 10.7675 2.22211 10.8997C2.34457 11.032 2.50659 11.1209 2.68388 11.1533L11.2831 12.7166L12.8473 21.3158C12.9131 21.68 13.2115 21.9566 13.5798 21.9958C13.609 21.9983 13.6381 22 13.6665 22C14.0015 22 14.309 21.7975 14.4381 21.4817L21.9382 3.14826C22.0001 2.99631 22.0158 2.82946 21.9833 2.66861C21.9509 2.50777 21.8716 2.36009 21.7556 2.24408Z" fill="black"/>
</g>
<defs>
<clipPath id="clip0_453_28">
<rect width="20" height="20" fill="white" transform="translate(2 2)"/>
</clipPath>
</defs>
</svg>
