<svg viewBox="0 0 133 21" fill="none" xmlns="http://www.w3.org/2000/svg">
<path d="M11.344 4.056C11.2 3.128 11.6 2.424 11.6 2.408C11.888 1.624 10.24 1.656 10.24 1.656C10.24 1.656 5.616 1.576 7.92 3.976C8.784 4.872 10.496 5.192 11.84 5.912C13.936 7.032 17.152 8.632 17.152 11.176C17.152 13.048 14.864 14.808 12.752 15.528C11.408 15.992 9.376 16.2 9.024 16.2H7.504C6.256 16.2 5.024 15.976 3.872 15.512C3.808 15.48 3.728 15.464 3.664 15.432C2.752 15.032 1.888 14.408 1.408 13.528C0.944 12.728 0.944 11.736 1.344 10.888C1.712 10.136 1.984 8.856 0 8.568H6C6.8 8.568 7.536 9.064 7.792 9.816C7.984 10.392 8.016 11.256 7.104 12.04C4.64 14.12 7.232 15.256 7.904 15.272C9.408 15.304 11.28 15.368 11.872 12.824C12.16 11.624 11.168 10.712 9.744 9.832C7.6 8.52 4.496 7.256 3.28 5.24C3.216 5.128 3.152 5.016 3.104 4.904C2.576 3.88 2.656 3.096 3.072 2.504C3.312 2.168 3.664 1.88 4.08 1.672C5.088 1.128 6.448 0.936 7.36 0.936H17.136C17.136 0.936 14.736 2.664 17.808 5.736H13.584C12.528 5.736 11.504 5.112 11.344 4.056ZM27.3853 4.776C32.3773 4.776 32.1213 10.52 32.1213 10.6C32.1213 12.616 31.3053 13.96 30.2973 14.76C26.6173 17.688 24.1213 15.384 23.2733 14.44C23.2733 14.44 23.3533 15.16 25.1933 16.888C25.9773 17.624 25.9453 18.44 25.7373 19.048C25.5453 19.64 25.0013 20.04 24.3773 20.04H18.2652C18.2652 20.04 20.0733 18.168 19.1613 16.2C18.2652 14.232 17.9772 11.816 19.0813 9.64C20.6173 6.584 18.2652 4.776 18.2652 4.776H27.3853ZM24.3773 14.008C27.4173 14.088 27.2093 6.28 24.0093 5.528C22.2333 5.112 22.4573 6.28 23.0973 7.656C23.8653 9.352 22.8573 10.2 22.6333 11.384C22.5373 11.864 22.6173 12.328 22.7293 12.696C22.9373 13.448 23.6093 13.992 24.3773 14.008ZM39.7949 4.776C43.7789 4.776 47.0269 7.336 47.0269 10.488C47.0269 13.64 43.7789 16.2 39.7949 16.2C35.7949 16.2 32.5469 13.64 32.5469 10.488C32.5469 7.336 35.7949 4.776 39.7949 4.776ZM39.7949 15.576C40.9629 15.576 41.9069 13.304 41.9069 10.488C41.9069 7.688 40.9629 5.416 39.7949 5.416C38.6109 5.416 37.6669 7.688 37.6669 10.488C37.6669 13.304 38.6109 15.576 39.7949 15.576ZM58.5813 11.496C59.3813 11.496 60.0373 12.152 59.9893 12.952C59.9893 12.952 59.9893 12.952 59.9893 12.968C59.9253 14.344 58.9493 16.2 54.1493 16.2H53.0933H51.4293C48.6293 16.2 46.6773 13.384 47.7173 10.792C47.7493 10.728 47.7653 10.648 47.7973 10.584C48.6133 9.064 48.5173 7.656 48.4853 7.464C48.4213 7.128 48.3093 6.824 48.2133 6.536C47.9573 5.8 47.2693 5.304 46.5013 5.304H45.7812C45.7812 5.16 45.8453 5.032 45.9413 4.936C46.0373 4.84 46.1653 4.776 46.3092 4.776H47.9573C47.9573 4.776 46.9173 2.92 47.6213 1.704C47.6853 1.624 47.7493 1.528 47.8293 1.448C48.1332 1.112 48.5653 0.936 49.0133 0.936H53.0933C53.0933 0.936 51.9413 1.816 51.7813 3.4C51.7013 4.136 52.2773 4.776 53.0293 4.776H54.1493H58.4213C58.4213 4.776 56.4053 6.056 58.0053 7.704H54.3893C53.7653 7.704 53.3173 7.096 53.5093 6.504C53.6853 5.944 54.1653 5.384 55.2853 5.304H53.8453H53.6373C53.6373 5.304 53.6373 5.304 53.6213 5.304C52.9173 5.304 52.3893 5.992 52.5813 6.68C52.8373 7.576 53.0453 8.872 52.8213 10.456C52.7253 11.128 52.4693 11.768 52.1813 12.36C51.8613 13.064 51.8933 13.768 52.0533 14.36C52.0533 14.36 52.0533 14.376 52.0693 14.392C52.1493 14.616 52.7733 16.2 54.6293 15.064C55.2213 14.696 55.4453 14.232 55.4613 13.768C55.5093 12.648 54.4213 11.496 54.4213 11.496H58.5813ZM72.5796 6.232C76.3396 9.16 71.0756 13.496 74.6916 16.2H70.3716C70.0196 16.2 67.8276 15.576 68.6436 11.784C68.8036 11.064 68.8516 10.328 68.7396 9.608C68.5316 8.12 67.8436 6.952 66.6596 6.984C65.8756 7 65.2196 7.544 64.9956 8.28C64.8836 8.664 64.8196 9.128 64.9156 9.592C64.9156 9.608 64.9156 9.624 64.9156 9.64C64.9796 9.912 65.0916 10.152 65.2516 10.376C65.7796 11.096 67.1716 13.192 66.8836 14.872C66.7396 15.64 66.0516 16.2 65.2836 16.2H64.2596H60.5476C60.5476 16.2 62.8996 14.392 61.3636 11.352C60.2596 9.16 60.5476 6.744 61.4436 4.776C62.3556 2.824 60.5476 0.936 60.5476 0.936H66.6436C67.2676 0.936 67.8276 1.336 68.0196 1.928C68.2276 2.552 68.2596 3.368 67.4756 4.088C65.6356 5.832 65.5556 6.536 65.5556 6.552C66.4036 5.592 68.8676 3.336 72.5796 6.232ZM81.9355 4.776C85.9195 4.776 89.1675 7.336 89.1675 10.488C89.1675 13.64 85.9195 16.2 81.9355 16.2C77.9355 16.2 74.6875 13.64 74.6875 10.488C74.6875 7.336 77.9355 4.776 81.9355 4.776ZM81.9355 15.576C83.1035 15.576 84.0475 13.304 84.0475 10.488C84.0475 7.688 83.1035 5.416 81.9355 5.416C80.7515 5.416 79.8075 7.688 79.8075 10.488C79.8075 13.304 80.7515 15.576 81.9355 15.576ZM103.269 4.776C103.269 4.776 101.557 6.088 102.069 8.408C102.117 8.664 102.197 8.888 102.293 9.112C102.389 9.384 102.565 9.816 102.645 10.056C103.109 11.544 102.661 12.584 102.405 13.768C102.245 14.44 102.437 15.032 102.661 15.464C102.917 15.896 103.237 16.168 103.269 16.2H99.3014C98.3574 16.2 98.0214 14.92 98.2614 14.44C97.4134 15.384 94.9174 17.688 91.2374 14.76C91.0454 14.616 90.2294 13.88 89.9574 13.016C89.1094 10.28 92.0694 6.984 89.1094 4.776H93.4294C93.7974 4.776 96.2774 5.48 95.1734 9.208C94.8694 10.216 95.1414 11.784 95.1414 11.784C95.4134 13.08 96.0694 14.04 97.1574 14.008C97.9254 13.992 98.5974 13.448 98.8054 12.696C98.8694 12.488 98.9174 12.248 98.9334 11.992C98.7894 10.968 98.0854 9.912 97.5254 9.256C97.0774 8.744 96.0374 7.4 96.1494 5.992C96.2134 5.304 96.8054 4.776 97.4934 4.776H103.269ZM113.814 8.472C120.214 8.616 119.19 16.2 109.318 16.2C106.534 16.2 105.11 15.704 104.934 13.704C104.806 12.28 103.766 11.496 103.766 11.496H108.326C108.678 11.496 109.27 11.496 109.558 11.704C110.902 12.648 109.078 14.936 110.678 15.048C112.47 15.176 113.222 10.76 111.814 10.152C109.798 9.272 104.166 12.632 103.766 8.568C103.35 4.392 110.182 4.776 110.182 4.776H115.078C113.238 6.648 115.702 7.704 115.702 7.704H110.662C110.054 7.704 109.654 7.112 109.91 6.584C110.31 5.752 111.606 5.448 111.606 5.448H111.014C110.518 5.448 110.038 5.544 109.606 5.768C107.478 6.872 108.102 8.712 109.238 8.824C110.31 8.92 111.43 8.76 112.006 8.632C112.614 8.52 113.206 8.456 113.814 8.472ZM124.612 10.488H123.54C123.3 13.176 125.508 15.384 126.996 15.528C130.724 15.896 123.588 11.48 128.58 11.48H131.572C131.572 11.48 129.364 13.736 131.78 16.2H124.628C124.628 16.2 120.788 16.28 119.108 13.16C117.924 10.936 118.404 8.152 120.276 6.456C121.284 5.544 122.82 4.776 125.076 4.776H127.444C128.308 4.776 129.012 4.952 129.588 5.24C130.164 5.528 130.596 5.928 130.948 6.392C131.236 6.776 131.444 7.192 131.604 7.608C131.62 7.64 131.636 7.672 131.652 7.704C131.652 7.736 131.668 7.768 131.684 7.784C132.148 9.112 131.156 10.488 129.748 10.488H124.612ZM123.748 9.16C123.684 9.384 123.636 9.592 123.604 9.8C123.636 9.8 126.068 9.928 127.236 8.888C127.588 8.536 127.844 8.072 127.94 7.576C128.1 6.808 127.988 6.104 127.748 5.736C127.54 5.416 127.3 5.304 126.772 5.464C126.148 5.64 125.284 6.28 124.228 8.056C124.02 8.424 123.86 8.792 123.748 9.16Z" fill="black"/>
</svg>
