<svg viewBox="0 0 24 24" fill="none" xmlns="http://www.w3.org/2000/svg">
<path fill-rule="evenodd" clip-rule="evenodd" d="M3.60938 5.98125C3.60938 5.66297 3.7358 5.35777 3.96085 5.13272C4.18589 4.90767 4.49111 4.78125 4.80937 4.78125H19.2094C19.5277 4.78125 19.8329 4.90767 20.0579 5.13272C20.283 5.35777 20.4094 5.66297 20.4094 5.98125C20.4094 6.29953 20.283 6.60473 20.0579 6.82978C19.8329 7.05483 19.5277 7.18125 19.2094 7.18125H4.80937C4.49111 7.18125 4.18589 7.05483 3.96085 6.82978C3.7358 6.60473 3.60938 6.29953 3.60938 5.98125ZM3.60938 11.9813C3.60938 11.663 3.7358 11.3578 3.96085 11.1327C4.18589 10.9077 4.49111 10.7812 4.80937 10.7812H19.2094C19.5277 10.7812 19.8329 10.9077 20.0579 11.1327C20.283 11.3578 20.4094 11.663 20.4094 11.9813C20.4094 12.2995 20.283 12.6047 20.0579 12.8298C19.8329 13.0548 19.5277 13.1813 19.2094 13.1813H4.80937C4.49111 13.1813 4.18589 13.0548 3.96085 12.8298C3.7358 12.6047 3.60938 12.2995 3.60938 11.9813ZM3.60938 17.9813C3.60938 17.663 3.7358 17.3578 3.96085 17.1327C4.18589 16.9077 4.49111 16.7812 4.80937 16.7812H19.2094C19.5277 16.7812 19.8329 16.9077 20.0579 17.1327C20.283 17.3578 20.4094 17.663 20.4094 17.9813C20.4094 18.2995 20.283 18.6047 20.0579 18.8298C19.8329 19.0548 19.5277 19.1813 19.2094 19.1813H4.80937C4.49111 19.1813 4.18589 19.0548 3.96085 18.8298C3.7358 18.6047 3.60938 18.2995 3.60938 17.9813Z" fill="black"/>
</svg>
