<svg  viewBox="0 0 24 24" fill="none" xmlns="http://www.w3.org/2000/svg">
<g clip-path="url(#clip0_451_11)">
<mask id="mask0_451_11" style="mask-type:luminance" maskUnits="userSpaceOnUse" x="2" y="2" width="20" height="20">
<path d="M22 2H2V22H22V2Z" fill="white"/>
</mask>
<g mask="url(#mask0_451_11)">
<path d="M20.849 2.06433L2.51797 9.5634C1.74701 9.87879 1.86485 11.0054 2.6844 11.1544L11.2824 12.7177L12.8457 21.3156C12.9947 22.1352 14.1212 22.253 14.4366 21.4821L21.9357 3.15102C22.2154 2.4672 21.5328 1.78456 20.849 2.06433ZM13.9747 18.2098L12.8187 11.852C12.7884 11.6852 12.708 11.5317 12.5882 11.4118C12.4683 11.292 12.3148 11.2115 12.148 11.1812L5.79014 10.0252L19.641 4.359L13.9747 18.2098Z" fill="black"/>
</g>
</g>
<defs>
<clipPath id="clip0_451_11">
<rect width="20" height="20" fill="white" transform="translate(2 2)"/>
</clipPath>
</defs>
</svg>
