<svg  viewBox="0 0 24 24" fill="none" xmlns="http://www.w3.org/2000/svg">
<path d="M20.2056 15.396L19.0996 13.55C18.704 12.8902 18.4953 12.1353 18.4956 11.366V8.74C18.4956 5.024 15.4696 2 11.7506 2C8.03059 2 5.00559 5.023 5.00559 8.74V11.367C5.00559 12.137 4.79559 12.891 4.40159 13.551L3.29559 15.397C3.10677 15.707 3.00473 16.062 3.00016 16.4249C2.99559 16.7879 3.08864 17.1454 3.26959 17.46C3.44651 17.7776 3.70554 18.0418 4.01956 18.2249C4.33359 18.408 4.69107 18.5034 5.05459 18.501H9.03459C9.02659 18.585 9.00159 18.666 9.00159 18.751C9.00159 20.268 10.2346 21.501 11.7516 21.501C13.2686 21.501 14.5016 20.268 14.5016 18.751C14.5016 18.666 14.4766 18.585 14.4686 18.501H18.4486C19.1976 18.501 19.8656 18.112 20.2336 17.461C20.4139 17.1459 20.5064 16.7882 20.5015 16.4252C20.4966 16.0622 20.3944 15.7071 20.2056 15.397V15.396ZM12.9996 18.75C12.9996 19.44 12.4386 20 11.7496 20C11.0606 20 10.4996 19.44 10.4996 18.75C10.4996 18.665 10.5156 18.582 10.5326 18.5H12.9666C12.9836 18.582 12.9996 18.665 12.9996 18.75ZM18.9266 16.72C18.8795 16.8058 18.8099 16.8772 18.7254 16.9265C18.6408 16.9758 18.5445 17.0012 18.4466 17H5.05259C4.95476 17.001 4.85849 16.9755 4.77398 16.9262C4.68947 16.8769 4.61988 16.8056 4.57259 16.72C4.5237 16.6358 4.49853 16.5399 4.49976 16.4425C4.50099 16.3452 4.52858 16.2499 4.57959 16.167L5.68559 14.321C6.22102 13.4283 6.50377 12.4069 6.50359 11.366V8.74C6.50598 7.35013 7.0595 6.01794 8.04275 5.03563C9.02601 4.05331 10.3587 3.50106 11.7486 3.5C13.1385 3.50106 14.4712 4.05331 15.4544 5.03563C16.4377 6.01794 16.9912 7.35013 16.9936 8.74V11.367C16.9936 12.407 17.2766 13.429 17.8116 14.322L18.9176 16.168C19.0676 16.416 18.9736 16.638 18.9266 16.721V16.72Z" fill="black"/>
</svg>
