<svg viewBox="0 0 24 24" fill="none" xmlns="http://www.w3.org/2000/svg">
<path fill-rule="evenodd" clip-rule="evenodd" d="M8.752 5.3C8.058 6.09 7.667 7.237 7.667 8.6V10.333C7.667 11.193 7.279 11.909 6.869 12.453C6.493 12.952 6.026 13.399 5.659 13.75L5.569 13.837C5.225 14.167 5 14.614 5 15.133C5 15.659 5.394 16 5.778 16H18.222C18.606 16 19 15.658 19 15.133C19 14.613 18.775 14.166 18.432 13.837C18.402 13.808 18.372 13.779 18.342 13.75C17.974 13.399 17.507 12.952 17.132 12.454C16.721 11.909 16.333 11.194 16.333 10.334V8.6C16.333 7.237 15.942 6.09 15.248 5.3C14.571 4.528 13.525 4 12 4C10.475 4 9.429 4.528 8.752 5.3ZM7.248 3.98C8.35 2.727 9.97 2 12 2C14.03 2 15.651 2.726 16.752 3.98C17.836 5.217 18.333 6.87 18.333 8.6V10.333C18.333 10.577 18.443 10.871 18.728 11.25C19.002 11.613 19.358 11.953 19.75 12.33L19.816 12.393C20.189 12.7455 20.4863 13.1702 20.6898 13.6412C20.8934 14.1123 20.9989 14.6198 21 15.133C21 16.67 19.802 18 18.222 18H5.778C4.198 18 3 16.67 3 15.133C3 14 3.5 13.049 4.184 12.393L4.25 12.33C4.643 11.953 4.998 11.613 5.272 11.25C5.557 10.87 5.667 10.577 5.667 10.333V8.6C5.667 6.87 6.164 5.217 7.248 3.98ZM9.443 19.17C9.55205 19.0968 9.67447 19.0457 9.80325 19.0198C9.93203 18.9939 10.0647 18.9936 10.1936 19.0189C10.3225 19.0443 10.4451 19.0948 10.5545 19.1675C10.6638 19.2403 10.7578 19.3339 10.831 19.443C10.93 19.591 11.084 19.731 11.291 19.834C11.5 19.938 11.744 19.996 12 19.996C12.256 19.996 12.5 19.938 12.708 19.834C12.916 19.731 13.07 19.591 13.169 19.443C13.2419 19.3333 13.3357 19.239 13.4451 19.1657C13.5544 19.0923 13.6772 19.0413 13.8064 19.0155C13.9356 18.9898 14.0685 18.9898 14.1977 19.0155C14.3269 19.0413 14.4497 19.0924 14.559 19.1657C14.6684 19.2391 14.7622 19.3333 14.8351 19.443C14.908 19.5528 14.9584 19.6758 14.9836 19.8051C15.0088 19.9343 15.0082 20.0673 14.9818 20.1964C14.9554 20.3254 14.9039 20.448 14.83 20.557C14.5195 21.0136 14.0957 21.3817 13.6 21.625C13.106 21.871 12.555 21.996 12 21.996C11.445 21.996 10.894 21.871 10.4 21.625C9.90433 21.3817 9.48046 21.0136 9.17 20.557C9.09675 20.4479 9.04571 20.3255 9.01979 20.1968C8.99387 20.068 8.99357 19.9353 9.01893 19.8064C9.04428 19.6775 9.09478 19.5549 9.16754 19.4455C9.24031 19.3362 9.33391 19.2432 9.443 19.17Z" fill="black"/>
</svg>
