<svg  viewBox="0 0 24 24" fill="none" xmlns="http://www.w3.org/2000/svg">
<path d="M2.00005 21.0909C2.00005 21.332 2.09583 21.5632 2.26632 21.7337C2.4368 21.9042 2.66803 22 2.90914 22C3.15024 22 3.38147 21.9042 3.55196 21.7337C3.72245 21.5632 3.81823 21.332 3.81823 21.0909C3.81823 17.8827 5.66459 15.0427 8.54367 13.7C9.57319 14.3724 10.7765 14.7298 12.0061 14.7285C13.2357 14.7272 14.4383 14.3673 15.4664 13.6927C16.3257 14.0941 17.1098 14.6399 17.7846 15.3064C18.5467 16.0642 19.151 16.9657 19.5625 17.9586C19.974 18.9515 20.1845 20.0161 20.1818 21.0909C20.1818 21.332 20.2776 21.5632 20.4481 21.7337C20.6186 21.9042 20.8498 22 21.0909 22C21.332 22 21.5632 21.9042 21.7337 21.7337C21.9042 21.5632 22 21.332 22 21.0909C22 18.4209 20.9591 15.9109 19.07 14.0209C18.4278 13.3861 17.7031 12.8406 16.9155 12.3991C17.852 11.2629 18.3634 9.83602 18.3618 8.36364C18.3618 4.85455 15.5073 2 11.9982 2C8.48913 2 5.63459 4.85455 5.63459 8.36364C5.63459 9.89091 6.17549 11.2927 7.07549 12.3909C5.53125 13.2575 4.24654 14.5209 3.35423 16.0504C2.46192 17.58 1.99441 19.3201 2.00005 21.0909ZM11.9991 3.81818C14.5055 3.81818 16.5446 5.85727 16.5446 8.36364C16.5446 10.87 14.5055 12.9091 11.9991 12.9091C9.49276 12.9091 7.45367 10.87 7.45367 8.36364C7.45367 5.85727 9.49276 3.81818 11.9991 3.81818Z" fill="black"/>
</svg>
