<svg viewBox="0 0 24 24" fill="none" xmlns="http://www.w3.org/2000/svg">
<path d="M21.7192 20.3109L18.0114 16.6309C19.4506 14.8353 20.1476 12.5562 19.959 10.2622C19.7705 7.9682 18.7106 5.83368 16.9975 4.29754C15.2844 2.76141 13.0481 1.94041 10.7486 2.00337C8.44911 2.06633 6.26109 3.00846 4.63448 4.63604C3.00786 6.26362 2.06629 8.45294 2.00337 10.7538C1.94045 13.0547 2.76095 15.2923 4.29618 17.0064C5.83141 18.7206 7.96466 19.781 10.2573 19.9697C12.5499 20.1584 14.8277 19.461 16.6222 18.0209L20.3 21.7009C20.3929 21.7946 20.5035 21.869 20.6253 21.9198C20.747 21.9706 20.8777 21.9967 21.0096 21.9967C21.1415 21.9967 21.2722 21.9706 21.3939 21.9198C21.5157 21.869 21.6263 21.7946 21.7192 21.7009C21.8993 21.5144 22 21.2652 22 21.0059C22 20.7466 21.8993 20.4974 21.7192 20.3109ZM4.0197 11.0209C4.0197 9.63643 4.43 8.28305 5.19871 7.13191C5.96742 5.98077 7.06003 5.08356 8.33835 4.55374C9.61667 4.02393 11.0233 3.88531 12.3804 4.1554C13.7374 4.4255 14.984 5.09219 15.9623 6.07115C16.9407 7.05012 17.607 8.2974 17.877 9.65527C18.1469 11.0131 18.0084 12.4206 17.4789 13.6997C16.9494 14.9788 16.0527 16.072 14.9022 16.8412C13.7518 17.6104 12.3992 18.0209 11.0155 18.0209C9.16013 18.0209 7.38071 17.2834 6.06873 15.9706C4.75676 14.6579 4.0197 12.8774 4.0197 11.0209Z" fill="black"/>
</svg>
